# xmcd
#
# Track frame offsets: 
#        150
#        14870
#        36534
#        53587
#        70806
#        86290
#        105394
#        125920
#        144877
#        170663
#        193888
#        218800
#
# Disc length: 3103 seconds
#
# Revision: 0
# Processed by: cddbd v1.5.1PL0 Copyright (c) Steve Scherf et al.
# Submitted via: ExactAudioCopy v0.95b3
#
DISCID=b00c1d0c
DTITLE=Chevy Thunderfoot - Black 
DYEAR=2003
DGENRE=Blues
TTITLE0=Who's Making Love To Your Old Lady
TTITLE1=Rainy Night In Georgia
TTITLE2=Jody's Got Your Girl
TTITLE3=Fever
TTITLE4=Sick And Tired
TTITLE5=Help Me Make It Through The Night
TTITLE6=Damn Sho Get Over You
TTITLE7=Drift Away
TTITLE8=Love Of Mine
TTITLE9=Bring It On Home To Me
TTITLE10=Uhh
TTITLE11=I Feel Good
EXTD=
EXTT0=
EXTT1=
EXTT2=
EXTT3=
EXTT4=
EXTT5=
EXTT6=
EXTT7=
EXTT8=
EXTT9=
EXTT10=
EXTT11=
PLAYORDER=
